<svg width="400" height="400" viewBox="0 0 400 400" fill="none" xmlns="http://www.w3.org/2000/svg">
<rect width="400" height="400" fill="url(#paint0_linear_6352_143050)"/>
<path d="M297.116 175.407C297.116 175.407 303.334 153.846 242.767 153.846C241.533 153.846 240.299 153.846 239.017 153.894C237.498 153.894 235.979 153.894 234.46 153.941H234.128L69.2305 158.844L95.0046 184.689C111.713 184.546 182.058 184.355 182.058 189.115C182.058 193.875 125.62 194.446 104.83 194.541L130.035 219.815C150.065 220.624 186.14 222.528 186.14 225.003C186.14 229.144 159.131 229.858 140.05 229.858L163.973 253.846H204.747C229.144 218.244 251.596 212.818 275.186 212.057C321.181 210.486 328.633 220.624 328.633 220.624C340.785 185.45 297.116 175.407 297.116 175.407ZM265.883 183.213C259.048 182.404 244.381 172.98 244.381 172.98C260.045 177.692 283.113 176.645 283.113 176.645C283.113 176.645 272.623 183.975 265.836 183.213H265.883Z" fill="url(#paint1_linear_6352_143050)"/>
<defs>
<linearGradient id="paint0_linear_6352_143050" x1="400" y1="200" x2="0" y2="200" gradientUnits="userSpaceOnUse">
<stop stop-color="#092B2E"/>
<stop offset="1" stop-color="#134143"/>
</linearGradient>
<linearGradient id="paint1_linear_6352_143050" x1="231.138" y1="259.605" x2="174.147" y2="116.971" gradientUnits="userSpaceOnUse">
<stop stop-color="#FFEAD9"/>
<stop offset="0.68" stop-color="#FFD5AF"/>
<stop offset="0.96" stop-color="#FFCC9D"/>
</linearGradient>
</defs>
</svg>
